<?xml version="1.0" encoding="UTF-8" standalone="no"?>
<!-- Created with Inkscape (http://www.inkscape.org/) -->

<svg
   xmlns:dc="http://purl.org/dc/elements/1.1/"
   xmlns:cc="http://creativecommons.org/ns#"
   xmlns:rdf="http://www.w3.org/1999/02/22-rdf-syntax-ns#"
   xmlns:svg="http://www.w3.org/2000/svg"
   xmlns="http://www.w3.org/2000/svg"
   xmlns:xlink="http://www.w3.org/1999/xlink"
   xmlns:sodipodi="http://sodipodi.sourceforge.net/DTD/sodipodi-0.dtd"
   xmlns:inkscape="http://www.inkscape.org/namespaces/inkscape"
   width="210mm"
   height="210mm"
   viewBox="0 0 744.09449 744.09448"
   id="svg2"
   version="1.1"
   inkscape:version="0.48.4 r9939"
   sodipodi:docname="cp-icon.svg"
   inkscape:export-filename="/home/eric/gitrepos/gdrive-copy/images/svg/cp-icon-16.png"
   inkscape:export-xdpi="1.9400001"
   inkscape:export-ydpi="1.9400001">
  <defs
     id="defs4">
    <linearGradient
       inkscape:collect="always"
       id="linearGradient4251">
      <stop
         style="stop-color:#ffffff;stop-opacity:0.78571427"
         offset="0"
         id="stop4253" />
      <stop
         style="stop-color:#ffe2d7;stop-opacity:0.2857143"
         offset="1"
         id="stop4255" />
    </linearGradient>
    <linearGradient
       id="linearGradient4254">
      <stop
         style="stop-color:#5290aa;stop-opacity:1;"
         offset="0"
         id="stop4256" />
      <stop
         style="stop-color:#5290aa;stop-opacity:0;"
         offset="1"
         id="stop4258" />
    </linearGradient>
    <linearGradient
       inkscape:collect="always"
       id="linearGradient4246">
      <stop
         style="stop-color:#606060;stop-opacity:1"
         offset="0"
         id="stop4248" />
      <stop
         style="stop-color:#777777;stop-opacity:0;"
         offset="1"
         id="stop4250" />
    </linearGradient>
    <linearGradient
       inkscape:collect="always"
       id="linearGradient4165">
      <stop
         style="stop-color:#0060ab;stop-opacity:1"
         offset="0"
         id="stop4167" />
      <stop
         style="stop-color:#eff6ff;stop-opacity:1"
         offset="1"
         id="stop4169" />
    </linearGradient>
    <linearGradient
       inkscape:collect="always"
       xlink:href="#linearGradient4165"
       id="linearGradient4171"
       x1="79.5"
       y1="389.50516"
       x2="671.92853"
       y2="992.3623"
       gradientUnits="userSpaceOnUse" />
    <linearGradient
       inkscape:collect="always"
       xlink:href="#linearGradient4246"
       id="linearGradient4252"
       x1="583.71582"
       y1="422.77814"
       x2="204.44783"
       y2="218.81519"
       gradientUnits="userSpaceOnUse"
       gradientTransform="matrix(1.0607828,0,0,1.0607828,-9.545292,26.85169)" />
    <linearGradient
       inkscape:collect="always"
       xlink:href="#linearGradient4254"
       id="linearGradient4262"
       x1="562.04456"
       y1="556.60138"
       x2="295.36157"
       y2="325.89136"
       gradientUnits="userSpaceOnUse"
       gradientTransform="matrix(1.0607828,0,0,1.0607828,-9.545292,26.85169)" />
    <linearGradient
       inkscape:collect="always"
       xlink:href="#linearGradient4251"
       id="linearGradient4257"
       x1="687.953"
       y1="690.89124"
       x2="80.41246"
       y2="65.543701"
       gradientUnits="userSpaceOnUse" />
  </defs>
  <sodipodi:namedview
     id="base"
     pagecolor="#ffffff"
     bordercolor="#666666"
     borderopacity="1.0"
     inkscape:pageopacity="0.0"
     inkscape:pageshadow="2"
     inkscape:zoom="0.32"
     inkscape:cx="-37.63256"
     inkscape:cy="-4.9810975"
     inkscape:document-units="px"
     inkscape:current-layer="layer2"
     showgrid="false"
     inkscape:window-width="1280"
     inkscape:window-height="969"
     inkscape:window-x="0"
     inkscape:window-y="0"
     inkscape:window-maximized="1" />
  <metadata
     id="metadata7">
    <rdf:RDF>
      <cc:Work
         rdf:about="">
        <dc:format>image/svg+xml</dc:format>
        <dc:type
           rdf:resource="http://purl.org/dc/dcmitype/StillImage" />
        <dc:title />
      </cc:Work>
    </rdf:RDF>
  </metadata>
  <g
     inkscape:groupmode="layer"
     id="layer5"
     inkscape:label="square-bg"
     style="display:none"
     sodipodi:insensitive="true">
    <path
       style="fill:#ffb760;fill-opacity:1;fill-rule:evenodd;stroke:#bf7739;stroke-width:4.08554506;stroke-linecap:butt;stroke-linejoin:miter;stroke-miterlimit:4;stroke-opacity:1;stroke-dasharray:none"
       d="m 6.672071,49.006449 0,650.006271 c 0,23.35779 19.936331,41.75386 41.753874,41.75386 l 651.134745,0 c 23.67889,0 41.18963,-17.29433 41.18963,-41.18962 l 0,-641.542646 c 0,-27.91871 -23.98026,-53.3208262 -53.32082,-53.3208262 l -640.132039,0 c -22.089252,0 -41.0900023,17.2090662 -40.62539,44.2929612 z"
       id="path4225"
       inkscape:connector-curvature="0"
       sodipodi:nodetypes="ccccccccc" />
  </g>
  <g
     inkscape:groupmode="layer"
     id="layer6"
     inkscape:label="square-fg"
     style="display:none"
     sodipodi:insensitive="true">
    <path
       style="fill:url(#linearGradient4257);fill-opacity:1;fill-rule:evenodd;stroke:#bf7739;stroke-width:3.9020946;stroke-linecap:butt;stroke-linejoin:miter;stroke-miterlimit:4;stroke-opacity:1;stroke-dasharray:none"
       d="m 22.579888,63.495996 0,620.819494 c 0,22.30897 19.041143,39.87902 39.879025,39.87902 l 621.897247,0 c 22.61566,0 39.34018,-16.51778 39.34018,-39.34011 l 0,-612.735915 c 0,-26.665096 -22.90352,-50.926594 -50.92657,-50.926594 l -611.388666,0 c -21.097391,0 -39.244964,16.436333 -38.801216,42.304105 z"
       id="path4225-2"
       inkscape:connector-curvature="0"
       sodipodi:nodetypes="ccccccccc" />
  </g>
  <g
     inkscape:label="Layer 1"
     inkscape:groupmode="layer"
     id="layer1"
     transform="translate(0,-308.26778)"
     sodipodi:insensitive="true"
     style="display:none">
    <circle
       style="fill:url(#linearGradient4171);fill-opacity:1;stroke:#000000;stroke-width:1;stroke-linecap:square;stroke-miterlimit:4;stroke-opacity:1;stroke-dasharray:none"
       id="path3363"
       cx="371.42856"
       cy="680.93372"
       r="371.42856"
       sodipodi:cx="371.42856"
       sodipodi:cy="680.93372"
       sodipodi:rx="371.42856"
       sodipodi:ry="371.42856"
       d="m 742.85712,680.93372 c 0,205.13432 -166.29423,371.42858 -371.42856,371.42858 C 166.29423,1052.3623 0,886.06804 0,680.93372 0,475.79939 166.29423,309.50516 371.42856,309.50516 c 205.13433,0 371.42856,166.29423 371.42856,371.42856 z" />
  </g>
  <g
     inkscape:groupmode="layer"
     id="layer4"
     inkscape:label="inner circle"
     sodipodi:insensitive="true"
     style="display:none">
    <circle
       style="fill:#ffffff;fill-opacity:0.83552629;stroke:#000000;stroke-width:0.91549838;stroke-linecap:square;stroke-miterlimit:4;stroke-dasharray:none;stroke-opacity:1"
       id="path3363-3-6"
       cx="375.2717"
       cy="374.88373"
       r="340.04224" />
  </g>
  <g
     inkscape:groupmode="layer"
     id="layer2"
     inkscape:label="folder-shape"
     style="display:inline">
    <path
       style="fill:#8cc7eb;fill-opacity:1;fill-rule:evenodd;stroke:#000000;stroke-width:21.9335289;stroke-linecap:butt;stroke-linejoin:miter;stroke-miterlimit:4;stroke-opacity:1;stroke-dasharray:none"
       d="m 101.78901,201.54123 0,246.7677 c 0,0 2.83564,31.19181 31.19184,31.19181 l 377.13777,0 c 0,0 22.8613,0.20359 22.8613,-39.59687 l 0,-243.96501 c 0,-12.79015 -9.60017,-42.53394 -37.51047,-42.53394 l -143.8347,0 c -19.46088,0 -26.51407,-6.31349 -33.44699,-18.57257 -8.13632,-14.387 -19.2792,-35.308463 -53.48077,-35.346889 l -46.94161,-0.05277 c -32.19478,0 -40.93229,24.266489 -50.09584,35.398949 -8.56544,10.40583 -13.48247,18.96446 -31.96234,18.57324 -21.84139,0 -33.91819,15.53864 -33.91819,48.13631 z"
       id="path4198"
       inkscape:connector-curvature="0"
       sodipodi:nodetypes="ccscscsssscscc" />
  </g>
  <g
     inkscape:groupmode="layer"
     id="layer3"
     inkscape:label="folder-copy"
     style="display:inline">
    <path
       style="fill:url(#linearGradient4262);fill-opacity:1;fill-rule:evenodd;stroke:url(#linearGradient4252);stroke-width:20.9956913;stroke-linecap:butt;stroke-linejoin:miter;stroke-miterlimit:4;stroke-opacity:1;stroke-dasharray:125.97415609, 20.99569268;stroke-dashoffset:0"
       d="m 227.70049,374.10974 0,236.21655 c 0,0 2.71437,29.85813 29.85811,29.85813 l 361.01188,0 c 0,0 21.88379,0.19488 21.88379,-37.90381 l 0,-233.53371 c 0,-12.24327 -9.18967,-40.71529 -35.90656,-40.71529 l -137.68455,0 c -18.62875,0 -25.38036,-6.04354 -32.01683,-17.77845 -7.78842,-13.77186 -18.45486,-33.79877 -51.19402,-33.83555 l -44.93445,-0.0505 c -30.81818,0 -39.18207,23.22893 -47.95381,33.88539 -8.19918,9.9609 -12.90597,18.15359 -30.59567,17.77909 -20.90748,0 -32.46789,14.87424 -32.46789,46.07812 z"
       id="path4198-5"
       inkscape:connector-curvature="0"
       sodipodi:nodetypes="ccscscsssscscc" />
  </g>
  <g
     inkscape:groupmode="layer"
     id="layer7"
     inkscape:label="boundary"
     sodipodi:insensitive="true"
     style="display:none">
    <rect
       style="fill:none;stroke:#000000;stroke-width:1.07722783;stroke-linecap:round;stroke-miterlimit:0;stroke-opacity:1;stroke-dasharray:none;stroke-dashoffset:0;display:inline"
       id="rect3009-7"
       width="556.92279"
       height="556.92279"
       x="93.538612"
       y="93.63308" />
  </g>
</svg>
