<?xml version="1.0" encoding="UTF-8" standalone="no"?>
<!-- Created with Inkscape (http://www.inkscape.org/) -->

<svg
   xmlns:dc="http://purl.org/dc/elements/1.1/"
   xmlns:cc="http://creativecommons.org/ns#"
   xmlns:rdf="http://www.w3.org/1999/02/22-rdf-syntax-ns#"
   xmlns:svg="http://www.w3.org/2000/svg"
   xmlns="http://www.w3.org/2000/svg"
   xmlns:xlink="http://www.w3.org/1999/xlink"
   xmlns:sodipodi="http://sodipodi.sourceforge.net/DTD/sodipodi-0.dtd"
   xmlns:inkscape="http://www.inkscape.org/namespaces/inkscape"
   width="210mm"
   height="210mm"
   viewBox="0 0 744.09449 744.09448"
   id="svg2"
   version="1.1"
   inkscape:version="0.48.4 r9939"
   sodipodi:docname="cp-icon.svg">
  <defs
     id="defs4">
    <linearGradient
       inkscape:collect="always"
       id="linearGradient4251">
      <stop
         style="stop-color:#ffffff;stop-opacity:0.78571427"
         offset="0"
         id="stop4253" />
      <stop
         style="stop-color:#ffe2d7;stop-opacity:0.2857143"
         offset="1"
         id="stop4255" />
    </linearGradient>
    <linearGradient
       inkscape:collect="always"
       id="linearGradient4254">
      <stop
         style="stop-color:#c8cd06;stop-opacity:1;"
         offset="0"
         id="stop4256" />
      <stop
         style="stop-color:#c8cd06;stop-opacity:0;"
         offset="1"
         id="stop4258" />
    </linearGradient>
    <linearGradient
       inkscape:collect="always"
       id="linearGradient4246">
      <stop
         style="stop-color:#606060;stop-opacity:1"
         offset="0"
         id="stop4248" />
      <stop
         style="stop-color:#777777;stop-opacity:0;"
         offset="1"
         id="stop4250" />
    </linearGradient>
    <linearGradient
       inkscape:collect="always"
       id="linearGradient4165">
      <stop
         style="stop-color:#0060ab;stop-opacity:1"
         offset="0"
         id="stop4167" />
      <stop
         style="stop-color:#eff6ff;stop-opacity:1"
         offset="1"
         id="stop4169" />
    </linearGradient>
    <linearGradient
       inkscape:collect="always"
       xlink:href="#linearGradient4165"
       id="linearGradient4171"
       x1="79.5"
       y1="389.50516"
       x2="671.92853"
       y2="992.3623"
       gradientUnits="userSpaceOnUse" />
    <linearGradient
       inkscape:collect="always"
       xlink:href="#linearGradient4246"
       id="linearGradient4252"
       x1="553.16656"
       y1="517.82031"
       x2="204.44783"
       y2="218.81519"
       gradientUnits="userSpaceOnUse"
       gradientTransform="matrix(1.3019869,0,0,1.3019869,-79.103952,-29.496877)" />
    <linearGradient
       inkscape:collect="always"
       xlink:href="#linearGradient4254"
       id="linearGradient4262"
       x1="714.79095"
       y1="675.40411"
       x2="295.36157"
       y2="325.89136"
       gradientUnits="userSpaceOnUse"
       gradientTransform="matrix(1.3019869,0,0,1.3019869,-79.103952,-29.496877)" />
    <linearGradient
       inkscape:collect="always"
       xlink:href="#linearGradient4251"
       id="linearGradient4257"
       x1="687.953"
       y1="690.89124"
       x2="80.41246"
       y2="65.543701"
       gradientUnits="userSpaceOnUse" />
  </defs>
  <sodipodi:namedview
     id="base"
     pagecolor="#ffffff"
     bordercolor="#666666"
     borderopacity="1.0"
     inkscape:pageopacity="0.0"
     inkscape:pageshadow="2"
     inkscape:zoom="0.22627417"
     inkscape:cx="533.23605"
     inkscape:cy="159.38085"
     inkscape:document-units="px"
     inkscape:current-layer="layer3"
     showgrid="false"
     inkscape:window-width="1280"
     inkscape:window-height="969"
     inkscape:window-x="0"
     inkscape:window-y="0"
     inkscape:window-maximized="1" />
  <metadata
     id="metadata7">
    <rdf:RDF>
      <cc:Work
         rdf:about="">
        <dc:format>image/svg+xml</dc:format>
        <dc:type
           rdf:resource="http://purl.org/dc/dcmitype/StillImage" />
        <dc:title />
      </cc:Work>
    </rdf:RDF>
  </metadata>
  <g
     inkscape:groupmode="layer"
     id="layer5"
     inkscape:label="square-bg"
     style="display:none"
     sodipodi:insensitive="true">
    <path
       style="fill:#ffb760;fill-opacity:1;fill-rule:evenodd;stroke:#bf7739;stroke-width:4.08554506;stroke-linecap:butt;stroke-linejoin:miter;stroke-miterlimit:4;stroke-opacity:1;stroke-dasharray:none"
       d="m 6.672071,49.006449 0,650.006271 c 0,23.35779 19.936331,41.75386 41.753874,41.75386 l 651.134745,0 c 23.67889,0 41.18963,-17.29433 41.18963,-41.18962 l 0,-641.542646 c 0,-27.91871 -23.98026,-53.3208262 -53.32082,-53.3208262 l -640.132039,0 c -22.089252,0 -41.0900023,17.2090662 -40.62539,44.2929612 z"
       id="path4225"
       inkscape:connector-curvature="0"
       sodipodi:nodetypes="ccccccccc" />
  </g>
  <g
     inkscape:groupmode="layer"
     id="layer6"
     inkscape:label="square-fg"
     style="display:none"
     sodipodi:insensitive="true">
    <path
       style="fill:url(#linearGradient4257);fill-opacity:1;fill-rule:evenodd;stroke:#bf7739;stroke-width:3.9020946;stroke-linecap:butt;stroke-linejoin:miter;stroke-miterlimit:4;stroke-opacity:1;stroke-dasharray:none"
       d="m 22.579888,63.495996 0,620.819494 c 0,22.30897 19.041143,39.87902 39.879025,39.87902 l 621.897247,0 c 22.61566,0 39.34018,-16.51778 39.34018,-39.34011 l 0,-612.735915 c 0,-26.665096 -22.90352,-50.926594 -50.92657,-50.926594 l -611.388666,0 c -21.097391,0 -39.244964,16.436333 -38.801216,42.304105 z"
       id="path4225-2"
       inkscape:connector-curvature="0"
       sodipodi:nodetypes="ccccccccc" />
  </g>
  <g
     inkscape:label="Layer 1"
     inkscape:groupmode="layer"
     id="layer1"
     transform="translate(0,-308.26778)"
     sodipodi:insensitive="true"
     style="display:none">
    <circle
       style="fill:url(#linearGradient4171);fill-opacity:1;stroke:#000000;stroke-width:1;stroke-linecap:square;stroke-miterlimit:4;stroke-opacity:1;stroke-dasharray:none"
       id="path3363"
       cx="371.42856"
       cy="680.93372"
       r="371.42856"
       d="m 742.85712,680.93372 c 0,205.13432 -166.29423,371.42858 -371.42856,371.42858 C 166.29423,1052.3623 0,886.06804 0,680.93372 0,475.79939 166.29423,309.50516 371.42856,309.50516 c 205.13433,0 371.42856,166.29423 371.42856,371.42856 z"
       sodipodi:cx="371.42856"
       sodipodi:cy="680.93372"
       sodipodi:rx="371.42856"
       sodipodi:ry="371.42856" />
  </g>
  <g
     inkscape:groupmode="layer"
     id="layer4"
     inkscape:label="inner circle"
     sodipodi:insensitive="true"
     style="display:none">
    <circle
       style="fill:#ffffff;fill-opacity:0.83552629;stroke:#000000;stroke-width:0.91549838;stroke-linecap:square;stroke-miterlimit:4;stroke-dasharray:none;stroke-opacity:1"
       id="path3363-3-6"
       cx="375.2717"
       cy="374.88373"
       r="340.04224" />
  </g>
  <g
     inkscape:groupmode="layer"
     id="layer2"
     inkscape:label="folder-shape"
     style="display:inline">
    <path
       style="fill:#c8cd06;fill-opacity:0.55263157;fill-rule:evenodd;stroke:#000000;stroke-width:25.85508537;stroke-linecap:butt;stroke-linejoin:miter;stroke-miterlimit:4;stroke-opacity:1;stroke-dasharray:none"
       d="m 22.734398,149.88328 0,290.888 c 0,0 3.342622,36.76868 36.768711,36.76868 l 444.567301,0 c 0,0 26.94873,0.23999 26.94873,-46.67651 l 0,-287.5842 c 0,-15.07694 -11.31661,-50.138704 -44.21707,-50.138704 l -169.55131,0 c -22.94035,0 -31.2546,-7.442292 -39.42707,-21.893209 C 268.23265,54.288036 255.0975,29.625971 214.78094,29.580675 l -55.33444,-0.06221 c -37.95097,0 -48.25068,28.605173 -59.05261,41.728027 -10.096876,12.266326 -15.893037,22.355171 -37.676973,21.894001 -25.746478,0 -39.982519,18.316837 -39.982519,56.742737 z"
       id="path4198"
       inkscape:connector-curvature="0"
       sodipodi:nodetypes="ccscscsssscscc" />
  </g>
  <g
     inkscape:groupmode="layer"
     id="layer3"
     inkscape:label="folder-copy"
     style="display:inline">
    <path
       style="fill:url(#linearGradient4262);fill-opacity:1;fill-rule:evenodd;stroke:url(#linearGradient4252);stroke-width:25.76975822;stroke-linecap:butt;stroke-linejoin:miter;stroke-miterlimit:4;stroke-opacity:1;stroke-dasharray:154.61855703, 25.7697595;stroke-dashoffset:0"
       d="m 212.08752,396.7218 0,289.92822 c 0,0 3.33158,36.64736 36.64735,36.64736 l 443.0999,0 c 0,0 26.85979,0.2392 26.85979,-46.5225 l 0,-286.63533 c 0,-15.02719 -11.27924,-49.97327 -44.07111,-49.97327 l -168.99169,0 c -22.86462,0 -31.15143,-7.41774 -39.29692,-21.82097 -9.55938,-16.90335 -22.65119,-41.48404 -62.83468,-41.52918 l -55.15179,-0.062 c -37.82571,0 -48.09141,28.5108 -58.85769,41.59036 -10.06354,12.22584 -15.84057,22.28141 -37.55261,21.82176 -25.66149,0 -39.85055,18.25639 -39.85055,56.55551 z"
       id="path4198-5"
       inkscape:connector-curvature="0"
       sodipodi:nodetypes="ccscscsssscscc" />
  </g>
</svg>
