<?xml version="1.0" encoding="UTF-8" standalone="no"?>
<svg
   xmlns:dc="http://purl.org/dc/elements/1.1/"
   xmlns:cc="http://creativecommons.org/ns#"
   xmlns:rdf="http://www.w3.org/1999/02/22-rdf-syntax-ns#"
   xmlns:svg="http://www.w3.org/2000/svg"
   xmlns="http://www.w3.org/2000/svg"
   xmlns:sodipodi="http://sodipodi.sourceforge.net/DTD/sodipodi-0.dtd"
   xmlns:inkscape="http://www.inkscape.org/namespaces/inkscape"
   height="36"
   width="36"
   version="1.1"
   viewBox="0 0 36 36.000001"
   id="svg3064"
   inkscape:version="0.48.4 r9939"
   sodipodi:docname="cp-icon.svg">
  <metadata
     id="metadata3084">
    <rdf:RDF>
      <cc:Work
         rdf:about="">
        <dc:format>image/svg+xml</dc:format>
        <dc:type
           rdf:resource="http://purl.org/dc/dcmitype/StillImage" />
      </cc:Work>
    </rdf:RDF>
  </metadata>
  <defs
     id="defs3082" />
  <sodipodi:namedview
     pagecolor="#ffffff"
     bordercolor="#666666"
     borderopacity="1"
     objecttolerance="10"
     gridtolerance="10"
     guidetolerance="10"
     inkscape:pageopacity="0"
     inkscape:pageshadow="2"
     inkscape:window-width="1280"
     inkscape:window-height="969"
     id="namedview3080"
     showgrid="false"
     inkscape:zoom="10.388889"
     inkscape:cx="11.73787"
     inkscape:cy="6.6852376"
     inkscape:window-x="0"
     inkscape:window-y="0"
     inkscape:window-maximized="1"
     inkscape:current-layer="svg3064" />
  <g
     id="g3070"
     clip-path="none"
     transform="matrix(0.75226807,0,0,0.75226807,4.9755046,4.9398862)">
    <path
       style="text-indent:0;text-transform:none;block-progression:tb;color:#000000;fill:#ffffff;fill-rule:evenodd;stroke:#000000;stroke-width:0.5"
       d="m 12.093,7.0608 -2.168,1.8828 -3.0234,0 0,25.061 27.74,0 0,-25.061 -12.639,0 -1.9473,-1.8828 z"
       id="path3072"
       inkscape:connector-curvature="0"
       sodipodi:nodetypes="ccccccccc" />
  </g>
  <g
     id="g3066"
     transform="matrix(0.75226807,0,0,0.75226807,19.462688,4.9610946)">
    <path
       style="fill-rule:evenodd;stroke:#000000;stroke-width:0.25"
       d="m -13.885347,0.80803696 -2.187499,1.90625004 -3.03125,0 0,25.21875 6.781249,0 0,-18.9375 3.0312505,0 2.1875,-1.90625 7.99999997,0 1.96875003,1.90625 5.9375,0 0,-6.28125 -12.71875,0 -1.9375,-1.90625004 -8.0312505,0 z M 0.64590347,15.245537 l -0.25,0.4375 7.31250003,4.40625 -19.9687505,0 0,0.5 19.9687505,0 -7.31250003,4.5625 0.25,0.40625 8.09375003,-5 0,-0.4375 -8.09375003,-4.875 z"
       id="path3068"
       inkscape:connector-curvature="0" />
  </g>
  <g
     id="g3074"
     transform="translate(-2.4843271,0.17015939)"
     style="fill:none;stroke:#000000;stroke-width:0.5;stroke-linejoin:bevel" />
</svg>
