<svg xmlns="http://www.w3.org/2000/svg" version="1.1" width="100px" height="100px" viewBox="-10 -10 220 220">
  <defs>
    <linearGradient id="grad1" gradientUnits="objectBoundingBox" x1="0" y1="0" x2="1" y2="1">
        <stop offset="0%" stop-color="#fff"/>   
        <stop offset="100%" stop-color="#ddd"/>   
    </linearGradient>
    <linearGradient id="grad2" gradientUnits="objectBoundingBox" x1="0" y1="0" x2="0" y2="1">
        <stop offset="0%" stop-color="#ddd"/>   
        <stop offset="100%" stop-color="#aaa"/>   
    </linearGradient>
    <linearGradient id="grad3" gradientUnits="objectBoundingBox" x1="1" y1="0" x2="0" y2="1">
        <stop offset="0%" stop-color="#aaa"/>   
        <stop offset="100%" stop-color="#777"/>   
    </linearGradient>
    <linearGradient id="grad4" gradientUnits="objectBoundingBox" x1="1" y1="1" x2="0" y2="0">
        <stop offset="0%" stop-color="#777"/>   
        <stop offset="100%" stop-color="#555"/>   
    </linearGradient>
    <linearGradient id="grad5" gradientUnits="objectBoundingBox" x1="0" y1="1" x2="0" y2="0">
        <stop offset="0%" stop-color="#555"/>   
        <stop offset="100%" stop-color="#333"/>   
    </linearGradient>
    <linearGradient id="grad6" gradientUnits="objectBoundingBox" x1="0" y1="1" x2="1" y2="0">
        <stop offset="0%" stop-color="#333"/>   
        <stop offset="100%" stop-color="#000"/>   
    </linearGradient>
  </defs>

  <g fill="none" stroke-width="15" stroke-linecap="round" transform="translate(100,100)">
    <path d="M 0,-100 A 100,100 0 0,1 86.6,-50" stroke="url(#grad1)"/>
    <path d="M 86.6,-50 A 100,100 0 0,1 86.6,50" stroke="url(#grad2)"/>
    <path d="M 86.6,50 A 100,100 0 0,1 0,100" stroke="url(#grad3)"/>
    <path d="M 0,100 A 100,100 0 0,1 -86.6,50" stroke="url(#grad4)"/>
    <path d="M -86.6,50 A 100,100 0 0,1 -86.6,-50" stroke="url(#grad5)"/>
    <path d="M -86.6,-50 A 100,100 0 0,1 0,-100" stroke="url(#grad6)"/>
  </g>
</svg>